<svg width="24" height="24" viewBox="0 0 24 24" fill="none" xmlns="http://www.w3.org/2000/svg">
<g clip-path="url(#clip0_42_2985)">
<path d="M16.7934 13.6001C16.9846 13.0884 17.0817 12.5463 17.0801 12.0001C17.0801 10.7872 16.5983 9.62392 15.7406 8.76626C14.8829 7.90859 13.7197 7.42676 12.5068 7.42676C11.9672 7.42753 11.4322 7.52461 10.9268 7.71342L12.0001 8.82009C12.1633 8.79455 12.3282 8.78118 12.4934 8.78009C13.351 8.7783 14.1745 9.11592 14.7841 9.71922C15.3936 10.3225 15.7397 11.1425 15.7468 12.0001C15.7457 12.1653 15.7323 12.3302 15.7068 12.4934L16.7934 13.6001Z" fill="#151515"/>
<path d="M22.8603 11.6862C20.6136 7.53286 16.6736 5.01953 12.3136 5.01953C11.1265 5.02209 9.94737 5.21337 8.82031 5.5862L9.89365 6.6662C10.6842 6.46202 11.4971 6.35677 12.3136 6.35286C16.067 6.35286 19.4803 8.4462 21.5136 11.9729C20.7671 13.2808 19.7784 14.4347 18.6003 15.3729L19.547 16.3195C20.9114 15.2195 22.0443 13.86 22.8803 12.3195L23.0536 11.9995L22.8603 11.6862Z" fill="#151515"/>
<path d="M3.24594 3.85369L6.21927 6.82702C4.33949 8.03663 2.80338 9.71052 1.75927 11.687L1.58594 12.0004L1.75927 12.3204C4.00594 16.4737 7.94594 18.987 12.3059 18.987C14.0078 18.9874 15.6876 18.6022 17.2193 17.8604L20.5526 21.1937L21.7193 20.1937L4.38594 2.86035L3.24594 3.85369ZM9.74594 10.3537L14.1793 14.787C13.6785 15.0974 13.1018 15.2635 12.5126 15.267C12.0846 15.267 11.6607 15.1824 11.2655 15.018C10.8703 14.8536 10.5115 14.6126 10.2098 14.309C9.90802 14.0054 9.66929 13.6452 9.50731 13.2489C9.34533 12.8527 9.2633 12.4284 9.26594 12.0004C9.27311 11.418 9.43907 10.8487 9.74594 10.3537ZM8.77927 9.38702C8.15556 10.2666 7.86322 11.3385 7.95401 12.413C8.04481 13.4875 8.51288 14.4951 9.27534 15.2576C10.0378 16.0201 11.0455 16.4881 12.1199 16.5789C13.1944 16.6697 14.2663 16.3774 15.1459 15.7537L16.2126 16.8204C14.9778 17.3484 13.6488 17.6205 12.3059 17.6204C8.5526 17.6204 5.13927 15.527 3.10594 12.0004C4.08199 10.2727 5.48728 8.82606 7.18594 7.80035L8.77927 9.38702Z" fill="#151515"/>
</g>
<defs>
<clipPath id="clip0_42_2985">
<rect width="24" height="24" fill="white"/>
</clipPath>
</defs>
</svg>
