<svg width="24" height="24" viewBox="0 0 24 24" fill="none" xmlns="http://www.w3.org/2000/svg">
<path d="M10.4284 5.67699C10.4284 6.48056 11.0712 7.12342 11.8748 7.12342C12.6882 7.12342 13.3212 6.48056 13.3114 5.67699C13.3114 4.86356 12.6882 4.2207 11.8748 4.2207C11.0712 4.2207 10.4284 4.86356 10.4284 5.67699ZM7.9375 18.9563C7.9375 19.4483 8.28893 19.7796 8.82121 19.7796H15.1795C15.7118 19.7796 16.0636 19.4483 16.0636 18.9558C16.0636 18.4741 15.7122 18.1424 15.1795 18.1424H13.1605V10.4783C13.1605 9.93613 12.8091 9.57399 12.2866 9.57399H9.10236C8.58036 9.57399 8.2285 9.89542 8.2285 10.378C8.2285 10.8803 8.57993 11.2116 9.10279 11.2116H11.3022V18.1424H8.82121C8.28893 18.1424 7.9375 18.4741 7.9375 18.9563Z" fill="#151515"/>
</svg>
