<svg width="24" height="24" viewBox="0 0 24 24" fill="none" xmlns="http://www.w3.org/2000/svg">
<path d="M20.825 10.837H20.1V10.7996H12V14.3996H17.0864C16.3443 16.4953 14.3504 17.9996 12 17.9996C9.01785 17.9996 6.6 15.5818 6.6 12.5996C6.6 9.61746 9.01785 7.19961 12 7.19961C13.3766 7.19961 14.6289 7.71891 15.5825 8.56716L18.1281 6.02151C16.5207 4.52346 14.3706 3.59961 12 3.59961C7.02975 3.59961 3 7.62936 3 12.5996C3 17.5699 7.02975 21.5996 12 21.5996C16.9703 21.5996 21 17.5699 21 12.5996C21 11.9962 20.9379 11.4071 20.825 10.837Z" fill="#FFC107"/>
<path d="M4.03809 8.41056L6.99504 10.5791C7.79514 8.59821 9.73284 7.19961 12.0004 7.19961C13.3769 7.19961 14.6293 7.71891 15.5828 8.56716L18.1285 6.02151C16.5211 4.52346 14.371 3.59961 12.0004 3.59961C8.54349 3.59961 5.54559 5.55126 4.03809 8.41056Z" fill="#FF3D00"/>
<path d="M11.9996 21.5995C14.3243 21.5995 16.4366 20.7099 18.0336 19.2631L15.2481 16.906C14.3141 17.6163 13.1729 18.0005 11.9996 17.9995C9.65866 17.9995 7.671 16.5069 6.9222 14.4238L3.9873 16.6851C5.4768 19.5997 8.50171 21.5995 11.9996 21.5995Z" fill="#4CAF50"/>
<path d="M20.825 10.8372H20.1V10.7998H12V14.3998H17.0864C16.7314 15.3972 16.092 16.2687 15.2472 16.9068L15.2486 16.9059L18.0341 19.263C17.837 19.4421 21 17.0998 21 12.5998C21 11.9964 20.9379 11.4073 20.825 10.8372Z" fill="#1976D2"/>
</svg>
