<svg width="24" height="24" viewBox="0 0 24 24" fill="none" xmlns="http://www.w3.org/2000/svg">
<path d="M17.4979 19.3179C16.5287 20.215 15.4705 20.0734 14.4518 19.6485C13.3738 19.2141 12.3848 19.1952 11.2475 19.6485C9.82335 20.2339 9.07173 20.064 8.2212 19.3179C3.39496 14.568 4.10702 7.33445 9.586 7.07004C10.9211 7.13614 11.8508 7.76884 12.6321 7.8255C13.7991 7.59886 14.9166 6.94728 16.1627 7.03227C17.6561 7.14559 18.7836 7.71218 19.5253 8.73205C16.4397 10.4979 17.1715 14.3791 20 15.4651C19.4363 16.8816 18.7044 18.2886 17.488 19.3274L17.4979 19.3179ZM12.5332 7.01338C12.3848 4.90754 14.1749 3.16998 16.232 3C16.5188 5.43636 13.9177 7.24946 12.5332 7.01338Z" fill="#151515"/>
</svg>
