<svg width="24" height="24" viewBox="0 0 24 24" fill="none" xmlns="http://www.w3.org/2000/svg">
<g clip-path="url(#clip0_42_2971)">
<path d="M2.75 4.5H1.25C0.835786 4.5 0.5 4.83579 0.5 5.25V21C0.5 21.4142 0.835786 21.75 1.25 21.75H2.75C3.16421 21.75 3.5 21.4142 3.5 21V5.25C3.5 4.83579 3.16421 4.5 2.75 4.5Z" stroke="#151515" stroke-width="1.1" stroke-linejoin="round"/>
<path d="M5.25 10.5H11.25M5.25 18.75H11.25" stroke="#151515" stroke-width="1.1" stroke-linecap="round" stroke-linejoin="round"/>
<path d="M10.5 7.5H6C5.58579 7.5 5.25 7.83579 5.25 8.25V21C5.25 21.4142 5.58579 21.75 6 21.75H10.5C10.9142 21.75 11.25 21.4142 11.25 21V8.25C11.25 7.83579 10.9142 7.5 10.5 7.5Z" stroke="#151515" stroke-width="1.1" stroke-linejoin="round"/>
<path d="M16.75 2.25H13.75C13.3358 2.25 13 2.58579 13 3V21C13 21.4142 13.3358 21.75 13.75 21.75H16.75C17.1642 21.75 17.5 21.4142 17.5 21V3C17.5 2.58579 17.1642 2.25 16.75 2.25Z" stroke="#151515" stroke-width="1.1" stroke-linejoin="round"/>
<path d="M20.8027 4.50506L18.909 4.70428C18.3877 4.75912 18.0099 5.24662 18.0685 5.78709L19.7054 20.8616C19.7644 21.4021 20.2383 21.7991 20.7596 21.7447L22.6533 21.5455C23.1746 21.4907 23.5524 21.0032 23.4938 20.4627L21.8593 5.39053C21.7979 4.84771 21.324 4.45021 20.8027 4.50506Z" stroke="#151515" stroke-width="1.1" stroke-linejoin="round"/>
</g>
<defs>
<clipPath id="clip0_42_2971">
<rect width="24" height="24" fill="white"/>
</clipPath>
</defs>
</svg>
