<svg width="22" height="22" viewBox="0 0 22 22" fill="none" xmlns="http://www.w3.org/2000/svg">
<path d="M21.2532 10.7216C21.2231 10.6537 20.4952 9.03891 18.877 7.4207C16.7209 5.26453 13.9975 4.125 11 4.125C8.00249 4.125 5.27913 5.26453 3.12296 7.4207C1.50476 9.03891 0.773429 10.6562 0.746789 10.7216C0.707698 10.8095 0.6875 10.9046 0.6875 11.0009C0.6875 11.0971 0.707698 11.1922 0.746789 11.2802C0.776867 11.348 1.50476 12.962 3.12296 14.5802C5.27913 16.7355 8.00249 17.875 11 17.875C13.9975 17.875 16.7209 16.7355 18.877 14.5802C20.4952 12.962 21.2231 11.348 21.2532 11.2802C21.2923 11.1922 21.3125 11.0971 21.3125 11.0009C21.3125 10.9046 21.2923 10.8095 21.2532 10.7216ZM11 16.5C8.35484 16.5 6.04398 15.5384 4.13101 13.6426C3.34612 12.862 2.67834 11.9719 2.14843 11C2.67814 10.028 3.34594 9.13786 4.13101 8.35742C6.04398 6.46164 8.35484 5.5 11 5.5C13.6451 5.5 15.956 6.46164 17.869 8.35742C18.6554 9.13773 19.3246 10.0278 19.8559 11C19.2362 12.1567 16.5369 16.5 11 16.5ZM11 6.875C10.1841 6.875 9.38662 7.11693 8.70826 7.57019C8.02991 8.02345 7.5012 8.66769 7.18899 9.42143C6.87678 10.1752 6.79509 11.0046 6.95425 11.8047C7.11342 12.6049 7.50628 13.3399 8.08318 13.9168C8.66007 14.4937 9.39507 14.8866 10.1952 15.0457C10.9954 15.2049 11.8248 15.1232 12.5786 14.811C13.3323 14.4988 13.9765 13.9701 14.4298 13.2917C14.8831 12.6134 15.125 11.8158 15.125 11C15.1239 9.90633 14.6889 8.85778 13.9156 8.08444C13.1422 7.3111 12.0937 6.87614 11 6.875ZM11 13.75C10.4561 13.75 9.92441 13.5887 9.47217 13.2865C9.01994 12.9844 8.66746 12.5549 8.45932 12.0524C8.25118 11.5499 8.19672 10.9969 8.30283 10.4635C8.40894 9.93005 8.67085 9.44005 9.05545 9.05546C9.44004 8.67086 9.93005 8.40895 10.4635 8.30284C10.9969 8.19673 11.5499 8.25119 12.0524 8.45933C12.5549 8.66747 12.9844 9.01995 13.2865 9.47218C13.5887 9.92442 13.75 10.4561 13.75 11C13.75 11.7293 13.4603 12.4288 12.9445 12.9445C12.4288 13.4603 11.7293 13.75 11 13.75Z" fill="#151515"/>
</svg>
