<svg width="22" height="20" viewBox="0 0 22 20" fill="none" xmlns="http://www.w3.org/2000/svg">
<g clip-path="url(#clip0_42_3060)">
<path d="M16 0C13.9 0 12.074 0.999765 11 2.67519C9.926 0.999765 8.1 0 6 0C4.40927 0.00195584 2.88422 0.669947 1.75941 1.85744C0.634589 3.04493 0.00185261 4.65495 0 6.33431C0 9.41701 1.82 12.6253 5.41 15.8685C7.05506 17.3484 8.83202 18.6565 10.716 19.7747C10.8033 19.8242 10.9009 19.8501 11 19.8501C11.0991 19.8501 11.1967 19.8242 11.284 19.7747C13.168 18.6565 14.9449 17.3484 16.59 15.8685C20.18 12.6253 22 9.41701 22 6.33431C21.9981 4.65495 21.3654 3.04493 20.2406 1.85744C19.1158 0.669947 17.5907 0.00195584 16 0ZM11 18.4867C9.359 17.4869 1.2 12.2168 1.2 6.33431C1.20132 4.99077 1.70746 3.70266 2.60735 2.75263C3.50724 1.8026 4.72737 1.26826 6 1.26686C8.028 1.26686 9.731 2.4102 10.445 4.25138C10.4902 4.36756 10.5671 4.46692 10.6659 4.53686C10.7647 4.60679 10.881 4.64413 11 4.64413C11.119 4.64413 11.2353 4.60679 11.3341 4.53686C11.4329 4.46692 11.5098 4.36756 11.555 4.25138C12.269 2.4102 13.972 1.26686 16 1.26686C17.2726 1.26826 18.4928 1.8026 19.3927 2.75263C20.2925 3.70266 20.7987 4.99077 20.8 6.33431C20.8 12.2168 12.641 17.4869 11 18.4867Z" fill="#151515"/>
</g>
<defs>
<clipPath id="clip0_42_3060">
<rect width="22" height="20" fill="white"/>
</clipPath>
</defs>
</svg>
